<svg width="38" height="38" viewBox="0 0 38 38" fill="none" xmlns="http://www.w3.org/2000/svg">
<path d="M30.0618 7.73927C27.901 5.57942 25.1483 4.10882 22.1517 3.51343C19.1551 2.91804 16.0492 3.2246 13.2269 4.39434C10.4045 5.56408 7.99238 7.54447 6.29552 10.0851C4.59866 12.6257 3.69328 15.6124 3.69385 18.6676C3.69385 22.7652 5.32109 26.6951 8.21782 29.5933C11.1146 32.4915 15.0436 34.1207 19.1413 34.1228C21.169 34.1229 23.1771 33.7265 25.0527 32.9561C26.9219 32.1666 28.6223 31.0259 30.0618 29.5959C31.4971 28.1609 32.6356 26.4571 33.4124 24.5821C34.1892 22.707 34.589 20.6972 34.589 18.6676C34.589 16.638 34.1892 14.6282 33.4124 12.7531C32.6356 10.878 31.4971 9.17431 30.0618 7.73927ZM28.9729 28.4914C26.7485 30.7255 23.8296 32.1356 20.6969 32.4894V22.2844H23.6215C24.0341 22.2844 24.4298 22.1205 24.7215 21.8288C25.0132 21.5371 25.1771 21.1414 25.1771 20.7288C25.1771 20.3162 25.0132 19.9205 24.7215 19.6288C24.4298 19.3371 24.0341 19.1732 23.6215 19.1732H20.6969V14.9107C20.6969 14.4982 20.8608 14.1025 21.1525 13.8107C21.4443 13.519 21.84 13.3551 22.2525 13.3551H24.1193C24.5319 13.3551 24.9276 13.1912 25.2193 12.8995C25.511 12.6077 25.6749 12.212 25.6749 11.7995C25.6749 11.3869 25.511 10.9912 25.2193 10.6995C24.9276 10.4077 24.5319 10.2438 24.1193 10.2438H21.4747C20.4433 10.2438 19.4541 10.6536 18.7247 11.3829C17.9954 12.1123 17.5856 13.1015 17.5856 14.1329V19.1732H14.6766C14.264 19.1732 13.8684 19.3371 13.5766 19.6288C13.2849 19.9205 13.121 20.3162 13.121 20.7288C13.121 21.1414 13.2849 21.5371 13.5766 21.8288C13.8684 22.1205 14.264 22.2844 14.6766 22.2844H17.5856V32.4894C14.6967 32.1598 11.9842 30.9309 9.83152 28.9762C7.67878 27.0216 6.19455 24.4401 5.58845 21.5962C4.98236 18.7524 5.28504 15.79 6.45374 13.1274C7.62245 10.4649 9.5981 8.23688 12.1017 6.75801C14.6052 5.27913 17.5101 4.62417 20.406 4.88564C23.302 5.14712 26.0426 6.31181 28.2407 8.2152C30.4389 10.1186 31.9835 12.6645 32.6564 15.4933C33.3293 18.3221 33.0965 21.2908 31.9908 23.9801C31.2852 25.6644 30.2604 27.1964 28.9729 28.4914Z" fill="black"/>
</svg>
