<svg width="37" height="37" viewBox="0 0 37 37" fill="none" xmlns="http://www.w3.org/2000/svg">
<g clip-path="url(#clip0_11_104)">
<path d="M33.0767 4.35144H4.39999C3.35978 4.35257 2.3625 4.7663 1.62696 5.50184C0.891419 6.23738 0.477695 7.23466 0.476562 8.27487V28.2487C0.477695 29.2889 0.891419 30.2862 1.62696 31.0217C2.3625 31.7573 3.35978 32.171 4.39999 32.1721H33.0767C34.1169 32.171 35.1142 31.7573 35.8497 31.0217C36.5852 30.2862 36.999 29.2889 37.0001 28.2487V8.27487C36.999 7.23466 36.5852 6.23738 35.8497 5.50184C35.1142 4.7663 34.1169 4.35257 33.0767 4.35144ZM34.8601 8.27487V28.2487C34.8601 28.3354 34.8537 28.4219 34.8408 28.5076L24.5529 18.2618L34.8408 8.01592C34.8537 8.10163 34.8601 8.18819 34.8601 8.27487ZM33.0767 6.49149C33.1588 6.49176 33.2407 6.49748 33.3221 6.50861L18.7383 21.0317L4.1546 6.50861C4.23593 6.49748 4.3179 6.49176 4.39999 6.49149H33.0767ZM2.63587 28.5076C2.62297 28.4219 2.61653 28.3354 2.61661 28.2487V8.27487C2.61653 8.18819 2.62297 8.10163 2.63587 8.01592L12.9238 18.2618L2.63587 28.5076ZM4.39999 30.0321C4.3179 30.0318 4.23593 30.0261 4.1546 30.0149L14.4404 19.7719L17.9836 23.3002C18.1841 23.4997 18.4555 23.6117 18.7383 23.6117C19.0212 23.6117 19.2925 23.4997 19.4931 23.3002L23.0363 19.7719L33.3221 30.0149C33.2407 30.0261 33.1588 30.0318 33.0767 30.0321H4.39999Z" fill="black"/>
</g>
<defs>
<clipPath id="clip0_11_104">
<rect width="36.5235" height="36.5235" fill="white" transform="translate(0.476562)"/>
</clipPath>
</defs>
</svg>
