<svg width="30" height="30" viewBox="0 0 30 30" fill="none" xmlns="http://www.w3.org/2000/svg">
<g clip-path="url(#clip0_11_88)">
<path d="M22.5012 0.0581818H7.89218C3.87504 0.0581818 0.587646 3.34558 0.587646 7.36271V21.9725C0.587646 25.9885 3.87504 29.277 7.89218 29.277H22.5012C26.5184 29.277 29.8058 25.9885 29.8058 21.9725V7.36271C29.8058 3.34558 26.5184 0.0581818 22.5012 0.0581818ZM27.3708 21.9725C27.3708 24.6569 25.1871 26.8421 22.5012 26.8421H7.89218C5.20741 26.8421 3.02261 24.6569 3.02261 21.9725V7.36271C3.02261 4.67758 5.20741 2.49314 7.89218 2.49314H22.5012C25.1871 2.49314 27.3708 4.67758 27.3708 7.36271V21.9725Z" fill="black"/>
<path d="M23.111 8.58001C24.1196 8.58001 24.9372 7.76243 24.9372 6.75388C24.9372 5.74534 24.1196 4.92775 23.111 4.92775C22.1025 4.92775 21.2849 5.74534 21.2849 6.75388C21.2849 7.76243 22.1025 8.58001 23.111 8.58001Z" fill="black"/>
<path d="M15.1966 7.36272C11.1616 7.36272 7.89209 10.6326 7.89209 14.6672C7.89209 18.7004 11.1616 21.9725 15.1966 21.9725C19.2305 21.9725 22.5011 18.7004 22.5011 14.6672C22.5011 10.6326 19.2305 7.36272 15.1966 7.36272ZM15.1966 19.5375C12.5074 19.5375 10.3271 17.3572 10.3271 14.6672C10.3271 11.9773 12.5074 9.79768 15.1966 9.79768C17.8858 9.79768 20.0662 11.9773 20.0662 14.6672C20.0662 17.3572 17.8858 19.5375 15.1966 19.5375Z" fill="black"/>
</g>
<defs>
<clipPath id="clip0_11_88">
<rect width="29.2188" height="29.2188" fill="white" transform="translate(0.587158 0.0581818)"/>
</clipPath>
</defs>
</svg>
