<svg width="35" height="35" viewBox="0 0 35 35" fill="none" xmlns="http://www.w3.org/2000/svg">
<g clip-path="url(#clip0_11_85)">
<path d="M14.9483 11.7816C14.2424 11.3598 13.3376 11.8697 13.3376 12.6963V22.6388C13.3376 23.4697 14.2438 23.9726 14.9483 23.555L23.2844 18.5908C23.9776 18.1775 23.9761 17.1747 23.2858 16.76L14.9483 11.7816ZM15.4682 20.7654V14.5726L20.6596 17.6733L15.4682 20.7654Z" fill="black"/>
<path d="M29.1021 5.26926C22.4932 4.28779 13.2609 4.28779 6.64909 5.26926C4.00438 5.66128 1.92071 7.73784 1.4662 10.4337C0.619665 15.4376 0.619665 19.899 1.4662 24.9015C1.92071 27.5987 4.00438 29.6739 6.64909 30.0659C9.96137 30.5573 13.927 30.8031 17.8912 30.8031C21.8484 30.8031 25.8041 30.5588 29.1036 30.0673C31.7454 29.6753 33.8277 27.6002 34.285 24.9029C35.1316 19.899 35.1316 15.4362 34.285 10.4323C33.8305 7.73784 31.7469 5.66128 29.1021 5.26926ZM32.1843 24.5478C31.8818 26.3318 30.5182 27.7038 28.7897 27.9595C22.3725 28.9126 13.3958 28.9126 6.96157 27.9581C5.23157 27.701 3.86661 26.3304 3.56549 24.5464C2.75021 19.7257 2.75021 15.6109 3.56549 10.7874C3.86803 9.00339 5.23157 7.63416 6.96299 7.37565C10.1758 6.89983 14.0264 6.66121 17.8742 6.66121C21.7248 6.66121 25.5754 6.89983 28.7882 7.37565C30.5182 7.63274 31.8832 9.00339 32.1843 10.7874C32.9996 15.6109 32.9996 19.7257 32.1843 24.5478Z" fill="black"/>
</g>
<defs>
<clipPath id="clip0_11_85">
<rect width="34.0886" height="34.0886" fill="white" transform="translate(0.831299 0.62326)"/>
</clipPath>
</defs>
</svg>
